STARTFONT 2.1
FONT -bited-KapliMono-Normal-R-Normal--16-120-96-96-M-90-ISO10646-1
SIZE 12 96 96
FONTBOUNDINGBOX 8 13 0 -3
STARTPROPERTIES 43
FOUNDRY "bited"
FAMILY_NAME "KapliMono"
WEIGHT_NAME "Normal"
SLANT "R"
SETWIDTH_NAME "Normal"
ADD_STYLE_NAME ""
PIXEL_SIZE 16
POINT_SIZE 120
RESOLUTION_X 96
RESOLUTION_Y 96
SPACING "M"
AVERAGE_WIDTH 90
CHARSET_REGISTRY "ISO10646"
CHARSET_ENCODING "1"
FONT_ASCENT 13
FONT_DESCENT 3
CAP_HEIGHT 9
X_HEIGHT 7
COPYRIGHT "bogdanov"
BITED_DWIDTH 9
BITED_TABLE_WIDTH -16
BITED_TABLE_CELL_SCALE 1
BITED_EDITOR_GRID_SIZE 32
BITED_EDITOR_CELL_SIZE 12
FONT_NAME "KapliMono"
FACE_NAME "KapliMono-Regular"
FONT_VERSION "0.1.0"
UNDERLINE_POSITION -2
UNDERLINE_THICKNESS 1
RAW_ASCENT 750
RAW_DESCENT 250
NORM_SPACE 9
RELATIVE_WEIGHT 40
RELATIVE_SETWIDTH 50
SUPERSCRIPT_X 0
SUPERSCRIPT_Y 7
SUPERSCRIPT_SIZE 11
SUBSCRIPT_X 0
SUBSCRIPT_Y 2
SUBSCRIPT_SIZE 11
FIGURE_WIDTH 9
AVG_LOWERCASE_WIDTH 90
AVG_UPPERCASE_WIDTH 90
ENDPROPERTIES
CHARS 327
STARTCHAR U+0000
ENCODING 0
SWIDTH 843 0
DWIDTH 9 0
BBX 7 9 0 0
BITMAP
FE
82
82
82
82
82
82
82
FE
ENDCHAR
STARTCHAR U+0020
ENCODING 32
SWIDTH 843 0
DWIDTH 9 0
BBX 0 0 0 0
BITMAP
ENDCHAR
STARTCHAR U+0021
ENCODING 33
SWIDTH 843 0
DWIDTH 9 0
BBX 1 9 3 0
BITMAP
80
80
80
80
80
80
80
00
80
ENDCHAR
STARTCHAR U+0022
ENCODING 34
SWIDTH 843 0
DWIDTH 9 0
BBX 3 3 2 6
BITMAP
A0
A0
A0
ENDCHAR
STARTCHAR U+0023
ENCODING 35
SWIDTH 843 0
DWIDTH 9 0
BBX 7 8 0 0
BITMAP
24
24
FE
48
48
FC
90
90
ENDCHAR
STARTCHAR U+0024
ENCODING 36
SWIDTH 843 0
DWIDTH 9 0
BBX 7 11 0 -1
BITMAP
10
10
7C
82
80
7C
02
82
7C
10
10
ENDCHAR
STARTCHAR U+0025
ENCODING 37
SWIDTH 843 0
DWIDTH 9 0
BBX 7 9 0 0
BITMAP
60
92
94
68
10
2C
52
92
0C
ENDCHAR
STARTCHAR U+0026
ENCODING 38
SWIDTH 843 0
DWIDTH 9 0
BBX 8 9 0 0
BITMAP
38
44
44
28
32
4A
84
84
7B
ENDCHAR
STARTCHAR U+0027
ENCODING 39
SWIDTH 843 0
DWIDTH 9 0
BBX 1 3 3 6
BITMAP
80
80
80
ENDCHAR
STARTCHAR U+0028
ENCODING 40
SWIDTH 843 0
DWIDTH 9 0
BBX 4 11 2 -1
BITMAP
30
40
80
80
80
80
80
80
80
40
30
ENDCHAR
STARTCHAR U+0029
ENCODING 41
SWIDTH 843 0
DWIDTH 9 0
BBX 4 11 1 -1
BITMAP
C0
20
10
10
10
10
10
10
10
20
C0
ENDCHAR
STARTCHAR U+002A
ENCODING 42
SWIDTH 843 0
DWIDTH 9 0
BBX 5 5 1 2
BITMAP
20
A8
70
A8
20
ENDCHAR
STARTCHAR U+002B
ENCODING 43
SWIDTH 843 0
DWIDTH 9 0
BBX 5 5 1 2
BITMAP
20
20
F8
20
20
ENDCHAR
STARTCHAR U+002C
ENCODING 44
SWIDTH 843 0
DWIDTH 9 0
BBX 2 3 2 -1
BITMAP
40
40
80
ENDCHAR
STARTCHAR U+002D
ENCODING 45
SWIDTH 843 0
DWIDTH 9 0
BBX 5 1 1 4
BITMAP
F8
ENDCHAR
STARTCHAR U+002E
ENCODING 46
SWIDTH 843 0
DWIDTH 9 0
BBX 1 2 3 0
BITMAP
80
80
ENDCHAR
STARTCHAR U+002F
ENCODING 47
SWIDTH 843 0
DWIDTH 9 0
BBX 7 7 0 1
BITMAP
02
04
08
10
20
40
80
ENDCHAR
STARTCHAR U+0030
ENCODING 48
SWIDTH 843 0
DWIDTH 9 0
BBX 7 9 0 0
BITMAP
38
44
86
8A
92
A2
C2
44
38
ENDCHAR
STARTCHAR U+0031
ENCODING 49
SWIDTH 843 0
DWIDTH 9 0
BBX 5 9 1 0
BITMAP
20
60
A0
20
20
20
20
20
F8
ENDCHAR
STARTCHAR U+0032
ENCODING 50
SWIDTH 843 0
DWIDTH 9 0
BBX 7 9 0 0
BITMAP
7C
82
02
02
3C
40
80
80
FE
ENDCHAR
STARTCHAR U+0033
ENCODING 51
SWIDTH 843 0
DWIDTH 9 0
BBX 7 9 0 0
BITMAP
7C
82
02
02
3C
02
02
82
7C
ENDCHAR
STARTCHAR U+0034
ENCODING 52
SWIDTH 843 0
DWIDTH 9 0
BBX 7 9 0 0
BITMAP
0C
14
24
44
84
FE
04
04
04
ENDCHAR
STARTCHAR U+0035
ENCODING 53
SWIDTH 843 0
DWIDTH 9 0
BBX 7 9 0 0
BITMAP
FE
80
80
80
FC
02
02
82
7C
ENDCHAR
STARTCHAR U+0036
ENCODING 54
SWIDTH 843 0
DWIDTH 9 0
BBX 7 9 0 0
BITMAP
7C
82
80
80
FC
82
82
82
7C
ENDCHAR
STARTCHAR U+0037
ENCODING 55
SWIDTH 843 0
DWIDTH 9 0
BBX 7 9 0 0
BITMAP
FE
02
02
04
08
10
20
40
40
ENDCHAR
STARTCHAR U+0038
ENCODING 56
SWIDTH 843 0
DWIDTH 9 0
BBX 7 9 0 0
BITMAP
7C
82
82
82
7C
82
82
82
7C
ENDCHAR
STARTCHAR U+0039
ENCODING 57
SWIDTH 843 0
DWIDTH 9 0
BBX 7 9 0 0
BITMAP
7C
82
82
82
7E
02
02
82
7C
ENDCHAR
STARTCHAR U+003A
ENCODING 58
SWIDTH 843 0
DWIDTH 9 0
BBX 1 7 3 0
BITMAP
80
80
00
00
00
80
80
ENDCHAR
STARTCHAR U+003B
ENCODING 59
SWIDTH 843 0
DWIDTH 9 0
BBX 2 8 2 -1
BITMAP
40
40
00
00
00
40
40
80
ENDCHAR
STARTCHAR U+003C
ENCODING 60
SWIDTH 843 0
DWIDTH 9 0
BBX 4 7 1 1
BITMAP
10
20
40
80
40
20
10
ENDCHAR
STARTCHAR U+003D
ENCODING 61
SWIDTH 843 0
DWIDTH 9 0
BBX 5 3 1 3
BITMAP
F8
00
F8
ENDCHAR
STARTCHAR U+003E
ENCODING 62
SWIDTH 843 0
DWIDTH 9 0
BBX 4 7 2 1
BITMAP
80
40
20
10
20
40
80
ENDCHAR
STARTCHAR U+003F
ENCODING 63
SWIDTH 843 0
DWIDTH 9 0
BBX 7 9 0 0
BITMAP
38
44
82
02
04
08
10
00
10
ENDCHAR
STARTCHAR U+0040
ENCODING 64
SWIDTH 843 0
DWIDTH 9 0
BBX 7 9 0 0
BITMAP
70
88
AA
AA
AA
AA
BA
82
7C
ENDCHAR
STARTCHAR U+0041
ENCODING 65
SWIDTH 843 0
DWIDTH 9 0
BBX 7 9 0 0
BITMAP
10
28
44
82
FE
82
82
82
82
ENDCHAR
STARTCHAR U+0042
ENCODING 66
SWIDTH 843 0
DWIDTH 9 0
BBX 7 9 0 0
BITMAP
F8
84
84
84
FC
82
82
82
FC
ENDCHAR
STARTCHAR U+0043
ENCODING 67
SWIDTH 843 0
DWIDTH 9 0
BBX 7 9 0 0
BITMAP
3C
42
80
80
80
80
80
42
3C
ENDCHAR
STARTCHAR U+0044
ENCODING 68
SWIDTH 843 0
DWIDTH 9 0
BBX 7 9 0 0
BITMAP
F8
84
82
82
82
82
82
84
F8
ENDCHAR
STARTCHAR U+0045
ENCODING 69
SWIDTH 843 0
DWIDTH 9 0
BBX 7 9 0 0
BITMAP
FE
80
80
80
F8
80
80
80
FE
ENDCHAR
STARTCHAR U+0046
ENCODING 70
SWIDTH 843 0
DWIDTH 9 0
BBX 7 9 0 0
BITMAP
FE
80
80
80
F8
80
80
80
80
ENDCHAR
STARTCHAR U+0047
ENCODING 71
SWIDTH 843 0
DWIDTH 9 0
BBX 7 9 0 0
BITMAP
3C
42
80
80
9E
82
82
42
3C
ENDCHAR
STARTCHAR U+0048
ENCODING 72
SWIDTH 843 0
DWIDTH 9 0
BBX 7 9 0 0
BITMAP
82
82
82
82
FE
82
82
82
82
ENDCHAR
STARTCHAR U+0049
ENCODING 73
SWIDTH 843 0
DWIDTH 9 0
BBX 5 9 1 0
BITMAP
F8
20
20
20
20
20
20
20
F8
ENDCHAR
STARTCHAR U+004A
ENCODING 74
SWIDTH 843 0
DWIDTH 9 0
BBX 6 9 0 0
BITMAP
1C
04
04
04
04
04
84
44
38
ENDCHAR
STARTCHAR U+004B
ENCODING 75
SWIDTH 843 0
DWIDTH 9 0
BBX 7 9 0 0
BITMAP
82
84
88
90
F0
88
84
82
82
ENDCHAR
STARTCHAR U+004C
ENCODING 76
SWIDTH 843 0
DWIDTH 9 0
BBX 7 9 0 0
BITMAP
80
80
80
80
80
80
80
80
FE
ENDCHAR
STARTCHAR U+004D
ENCODING 77
SWIDTH 843 0
DWIDTH 9 0
BBX 7 9 0 0
BITMAP
82
C6
AA
92
82
82
82
82
82
ENDCHAR
STARTCHAR U+004E
ENCODING 78
SWIDTH 843 0
DWIDTH 9 0
BBX 7 9 0 0
BITMAP
82
C2
A2
92
8A
86
82
82
82
ENDCHAR
STARTCHAR U+004F
ENCODING 79
SWIDTH 843 0
DWIDTH 9 0
BBX 7 9 0 0
BITMAP
38
44
82
82
82
82
82
44
38
ENDCHAR
STARTCHAR U+0050
ENCODING 80
SWIDTH 843 0
DWIDTH 9 0
BBX 7 9 0 0
BITMAP
FC
82
82
82
FC
80
80
80
80
ENDCHAR
STARTCHAR U+0051
ENCODING 81
SWIDTH 843 0
DWIDTH 9 0
BBX 8 9 0 0
BITMAP
38
44
82
82
82
82
8A
44
3B
ENDCHAR
STARTCHAR U+0052
ENCODING 82
SWIDTH 843 0
DWIDTH 9 0
BBX 7 9 0 0
BITMAP
FC
82
82
82
FC
90
88
84
82
ENDCHAR
STARTCHAR U+0053
ENCODING 83
SWIDTH 843 0
DWIDTH 9 0
BBX 7 9 0 0
BITMAP
7C
82
80
80
7C
02
02
82
7C
ENDCHAR
STARTCHAR U+0054
ENCODING 84
SWIDTH 843 0
DWIDTH 9 0
BBX 7 9 0 0
BITMAP
FE
10
10
10
10
10
10
10
10
ENDCHAR
STARTCHAR U+0055
ENCODING 85
SWIDTH 843 0
DWIDTH 9 0
BBX 7 9 0 0
BITMAP
82
82
82
82
82
82
82
44
38
ENDCHAR
STARTCHAR U+0056
ENCODING 86
SWIDTH 843 0
DWIDTH 9 0
BBX 7 9 0 0
BITMAP
82
82
82
82
82
82
44
28
10
ENDCHAR
STARTCHAR U+0057
ENCODING 87
SWIDTH 843 0
DWIDTH 9 0
BBX 7 9 0 0
BITMAP
82
82
82
82
92
92
92
92
6C
ENDCHAR
STARTCHAR U+0058
ENCODING 88
SWIDTH 843 0
DWIDTH 9 0
BBX 7 9 0 0
BITMAP
82
82
44
28
10
28
44
82
82
ENDCHAR
STARTCHAR U+0059
ENCODING 89
SWIDTH 843 0
DWIDTH 9 0
BBX 7 9 0 0
BITMAP
82
82
82
44
28
10
10
10
10
ENDCHAR
STARTCHAR U+005A
ENCODING 90
SWIDTH 843 0
DWIDTH 9 0
BBX 7 9 0 0
BITMAP
FE
02
04
08
10
20
40
80
FE
ENDCHAR
STARTCHAR U+005B
ENCODING 91
SWIDTH 843 0
DWIDTH 9 0
BBX 4 11 2 -1
BITMAP
F0
80
80
80
80
80
80
80
80
80
F0
ENDCHAR
STARTCHAR U+005C
ENCODING 92
SWIDTH 843 0
DWIDTH 9 0
BBX 7 7 0 1
BITMAP
80
40
20
10
08
04
02
ENDCHAR
STARTCHAR U+005D
ENCODING 93
SWIDTH 843 0
DWIDTH 9 0
BBX 4 11 1 -1
BITMAP
F0
10
10
10
10
10
10
10
10
10
F0
ENDCHAR
STARTCHAR U+005E
ENCODING 94
SWIDTH 843 0
DWIDTH 9 0
BBX 5 3 1 6
BITMAP
20
50
88
ENDCHAR
STARTCHAR U+005F
ENCODING 95
SWIDTH 843 0
DWIDTH 9 0
BBX 7 1 0 0
BITMAP
FE
ENDCHAR
STARTCHAR U+0060
ENCODING 96
SWIDTH 843 0
DWIDTH 9 0
BBX 3 3 2 6
BITMAP
80
40
20
ENDCHAR
STARTCHAR U+0061
ENCODING 97
SWIDTH 843 0
DWIDTH 9 0
BBX 7 7 0 0
BITMAP
7C
82
02
7E
82
86
7A
ENDCHAR
STARTCHAR U+0062
ENCODING 98
SWIDTH 843 0
DWIDTH 9 0
BBX 7 9 0 0
BITMAP
80
80
B8
C4
82
82
82
C4
B8
ENDCHAR
STARTCHAR U+0063
ENCODING 99
SWIDTH 843 0
DWIDTH 9 0
BBX 7 7 0 0
BITMAP
3C
42
80
80
80
42
3C
ENDCHAR
STARTCHAR U+0064
ENCODING 100
SWIDTH 843 0
DWIDTH 9 0
BBX 7 9 0 0
BITMAP
02
02
3A
46
82
82
82
46
3A
ENDCHAR
STARTCHAR U+0065
ENCODING 101
SWIDTH 843 0
DWIDTH 9 0
BBX 7 7 0 0
BITMAP
7C
82
82
FE
80
82
7C
ENDCHAR
STARTCHAR U+0066
ENCODING 102
SWIDTH 843 0
DWIDTH 9 0
BBX 6 9 1 0
BITMAP
18
24
20
20
F8
20
20
20
20
ENDCHAR
STARTCHAR U+0067
ENCODING 103
SWIDTH 843 0
DWIDTH 9 0
BBX 7 10 0 -3
BITMAP
3A
46
82
82
82
46
3A
02
42
3C
ENDCHAR
STARTCHAR U+0068
ENCODING 104
SWIDTH 843 0
DWIDTH 9 0
BBX 7 9 0 0
BITMAP
80
80
80
B8
C4
82
82
82
82
ENDCHAR
STARTCHAR U+0069
ENCODING 105
SWIDTH 843 0
DWIDTH 9 0
BBX 5 9 1 0
BITMAP
20
00
E0
20
20
20
20
20
F8
ENDCHAR
STARTCHAR U+006A
ENCODING 106
SWIDTH 843 0
DWIDTH 9 0
BBX 5 12 0 -3
BITMAP
08
00
38
08
08
08
08
08
08
88
88
70
ENDCHAR
STARTCHAR U+006B
ENCODING 107
SWIDTH 843 0
DWIDTH 9 0
BBX 7 9 0 0
BITMAP
80
80
82
84
88
F8
84
82
82
ENDCHAR
STARTCHAR U+006C
ENCODING 108
SWIDTH 843 0
DWIDTH 9 0
BBX 7 9 0 0
BITMAP
E0
20
20
20
20
20
20
22
1C
ENDCHAR
STARTCHAR U+006D
ENCODING 109
SWIDTH 843 0
DWIDTH 9 0
BBX 7 7 0 0
BITMAP
EC
92
92
92
92
92
92
ENDCHAR
STARTCHAR U+006E
ENCODING 110
SWIDTH 843 0
DWIDTH 9 0
BBX 7 7 0 0
BITMAP
B8
C4
82
82
82
82
82
ENDCHAR
STARTCHAR U+006F
ENCODING 111
SWIDTH 843 0
DWIDTH 9 0
BBX 7 7 0 0
BITMAP
38
44
82
82
82
44
38
ENDCHAR
STARTCHAR U+0070
ENCODING 112
SWIDTH 843 0
DWIDTH 9 0
BBX 7 10 0 -3
BITMAP
B8
C4
82
82
82
C4
B8
80
80
80
ENDCHAR
STARTCHAR U+0071
ENCODING 113
SWIDTH 843 0
DWIDTH 9 0
BBX 7 10 0 -3
BITMAP
3A
46
82
82
82
46
3A
02
02
02
ENDCHAR
STARTCHAR U+0072
ENCODING 114
SWIDTH 843 0
DWIDTH 9 0
BBX 6 7 1 0
BITMAP
B8
C4
80
80
80
80
80
ENDCHAR
STARTCHAR U+0073
ENCODING 115
SWIDTH 843 0
DWIDTH 9 0
BBX 7 7 0 0
BITMAP
7C
82
80
7C
02
82
7C
ENDCHAR
STARTCHAR U+0074
ENCODING 116
SWIDTH 843 0
DWIDTH 9 0
BBX 7 9 0 0
BITMAP
20
20
20
FC
20
20
20
22
1C
ENDCHAR
STARTCHAR U+0075
ENCODING 117
SWIDTH 843 0
DWIDTH 9 0
BBX 7 7 0 0
BITMAP
82
82
82
82
82
46
3A
ENDCHAR
STARTCHAR U+0076
ENCODING 118
SWIDTH 843 0
DWIDTH 9 0
BBX 7 7 0 0
BITMAP
82
82
82
82
44
28
10
ENDCHAR
STARTCHAR U+0077
ENCODING 119
SWIDTH 843 0
DWIDTH 9 0
BBX 7 7 0 0
BITMAP
82
82
82
92
92
92
6C
ENDCHAR
STARTCHAR U+0078
ENCODING 120
SWIDTH 843 0
DWIDTH 9 0
BBX 7 7 0 0
BITMAP
82
44
28
10
28
44
82
ENDCHAR
STARTCHAR U+0079
ENCODING 121
SWIDTH 843 0
DWIDTH 9 0
BBX 7 10 0 -3
BITMAP
82
82
82
82
82
46
3A
02
42
3C
ENDCHAR
STARTCHAR U+007A
ENCODING 122
SWIDTH 843 0
DWIDTH 9 0
BBX 7 7 0 0
BITMAP
FE
04
08
10
20
40
FE
ENDCHAR
STARTCHAR U+007B
ENCODING 123
SWIDTH 843 0
DWIDTH 9 0
BBX 5 11 1 -1
BITMAP
18
20
20
20
20
C0
20
20
20
20
18
ENDCHAR
STARTCHAR U+007C
ENCODING 124
SWIDTH 843 0
DWIDTH 9 0
BBX 1 9 3 0
BITMAP
80
80
80
80
80
80
80
80
80
ENDCHAR
STARTCHAR U+007D
ENCODING 125
SWIDTH 843 0
DWIDTH 9 0
BBX 5 11 1 -1
BITMAP
C0
20
20
20
20
18
20
20
20
20
C0
ENDCHAR
STARTCHAR U+007E
ENCODING 126
SWIDTH 843 0
DWIDTH 9 0
BBX 7 3 0 3
BITMAP
62
92
8C
ENDCHAR
STARTCHAR U+007F
ENCODING 127
SWIDTH 843 0
DWIDTH 9 0
BBX 7 9 0 0
BITMAP
FE
82
82
82
82
82
82
82
FE
ENDCHAR
STARTCHAR U+00A1
ENCODING 161
SWIDTH 843 0
DWIDTH 9 0
BBX 1 9 3 -2
BITMAP
80
00
80
80
80
80
80
80
80
ENDCHAR
STARTCHAR U+00A2
ENCODING 162
SWIDTH 843 0
DWIDTH 9 0
BBX 7 11 0 -1
BITMAP
10
10
7C
82
80
80
80
82
7C
10
10
ENDCHAR
STARTCHAR U+00A3
ENCODING 163
SWIDTH 843 0
DWIDTH 9 0
BBX 7 9 0 0
BITMAP
1C
22
22
20
F8
20
20
40
FE
ENDCHAR
STARTCHAR U+00A4
ENCODING 164
SWIDTH 843 0
DWIDTH 9 0
BBX 6 6 1 2
BITMAP
B4
48
84
84
48
B4
ENDCHAR
STARTCHAR U+00A5
ENCODING 165
SWIDTH 843 0
DWIDTH 9 0
BBX 7 9 0 0
BITMAP
82
82
44
28
10
7C
10
7C
10
ENDCHAR
STARTCHAR U+00A6
ENCODING 166
SWIDTH 843 0
DWIDTH 9 0
BBX 1 9 3 0
BITMAP
80
80
80
80
00
80
80
80
80
ENDCHAR
STARTCHAR U+00A7
ENCODING 167
SWIDTH 843 0
DWIDTH 9 0
BBX 7 10 0 -1
BITMAP
7C
82
80
7C
82
82
7C
02
82
7C
ENDCHAR
STARTCHAR U+00A8
ENCODING 168
SWIDTH 843 0
DWIDTH 9 0
BBX 5 1 2 8
BITMAP
D8
ENDCHAR
STARTCHAR U+00A9
ENCODING 169
SWIDTH 843 0
DWIDTH 9 0
BBX 7 8 0 0
BITMAP
7C
82
BA
A2
A2
BA
82
7C
ENDCHAR
STARTCHAR U+00AA
ENCODING 170
SWIDTH 843 0
DWIDTH 9 0
BBX 5 7 0 3
BITMAP
70
08
78
88
78
00
F8
ENDCHAR
STARTCHAR U+00AB
ENCODING 171
SWIDTH 843 0
DWIDTH 9 0
BBX 6 5 1 2
BITMAP
24
48
90
48
24
ENDCHAR
STARTCHAR U+00AC
ENCODING 172
SWIDTH 843 0
DWIDTH 9 0
BBX 7 3 0 3
BITMAP
FE
02
02
ENDCHAR
STARTCHAR U+00AE
ENCODING 174
SWIDTH 843 0
DWIDTH 9 0
BBX 7 8 0 0
BITMAP
7C
82
BA
AA
B2
AA
82
7C
ENDCHAR
STARTCHAR U+00AF
ENCODING 175
SWIDTH 843 0
DWIDTH 9 0
BBX 7 1 0 8
BITMAP
FE
ENDCHAR
STARTCHAR U+00B0
ENCODING 176
SWIDTH 843 0
DWIDTH 9 0
BBX 4 4 0 6
BITMAP
60
90
90
60
ENDCHAR
STARTCHAR U+00B1
ENCODING 177
SWIDTH 843 0
DWIDTH 9 0
BBX 5 7 1 1
BITMAP
20
20
F8
20
20
00
F8
ENDCHAR
STARTCHAR U+00B2
ENCODING 178
SWIDTH 843 0
DWIDTH 9 0
BBX 4 5 0 4
BITMAP
E0
10
70
80
F0
ENDCHAR
STARTCHAR U+00B3
ENCODING 179
SWIDTH 843 0
DWIDTH 9 0
BBX 4 5 0 4
BITMAP
E0
10
60
10
E0
ENDCHAR
STARTCHAR U+00B4
ENCODING 180
SWIDTH 843 0
DWIDTH 9 0
BBX 3 3 2 6
BITMAP
20
40
80
ENDCHAR
STARTCHAR U+00B5
ENCODING 181
SWIDTH 843 0
DWIDTH 9 0
BBX 7 10 0 -3
BITMAP
82
82
82
82
82
C6
BA
80
80
80
ENDCHAR
STARTCHAR U+00B6
ENCODING 182
SWIDTH 843 0
DWIDTH 9 0
BBX 8 9 0 0
BITMAP
7F
FA
FA
FA
7A
0A
0A
0A
0A
ENDCHAR
STARTCHAR U+00B7
ENCODING 183
SWIDTH 843 0
DWIDTH 9 0
BBX 1 2 3 4
BITMAP
80
80
ENDCHAR
STARTCHAR U+00B8
ENCODING 184
SWIDTH 843 0
DWIDTH 9 0
BBX 3 3 2 -2
BITMAP
40
20
C0
ENDCHAR
STARTCHAR U+00B9
ENCODING 185
SWIDTH 843 0
DWIDTH 9 0
BBX 3 5 1 4
BITMAP
40
C0
40
40
E0
ENDCHAR
STARTCHAR U+00BA
ENCODING 186
SWIDTH 843 0
DWIDTH 9 0
BBX 5 7 0 2
BITMAP
70
88
88
88
70
00
F8
ENDCHAR
STARTCHAR U+00BB
ENCODING 187
SWIDTH 843 0
DWIDTH 9 0
BBX 6 5 0 2
BITMAP
90
48
24
48
90
ENDCHAR
STARTCHAR U+00BC
ENCODING 188
SWIDTH 843 0
DWIDTH 9 0
BBX 7 9 1 0
BITMAP
40
C0
44
E8
10
2C
54
9E
04
ENDCHAR
STARTCHAR U+00BD
ENCODING 189
SWIDTH 843 0
DWIDTH 9 0
BBX 6 9 1 0
BITMAP
40
C0
44
E8
10
3C
44
98
1C
ENDCHAR
STARTCHAR U+00BE
ENCODING 190
SWIDTH 843 0
DWIDTH 9 0
BBX 7 9 1 0
BITMAP
E0
20
64
28
F0
2C
54
9E
04
ENDCHAR
STARTCHAR U+00BF
ENCODING 191
SWIDTH 843 0
DWIDTH 9 0
BBX 7 9 0 -3
BITMAP
10
00
10
20
40
80
82
44
38
ENDCHAR
STARTCHAR U+00C0
ENCODING 192
SWIDTH 843 0
DWIDTH 9 0
BBX 7 12 0 0
BITMAP
20
10
00
10
28
44
82
FE
82
82
82
82
ENDCHAR
STARTCHAR U+00C1
ENCODING 193
SWIDTH 843 0
DWIDTH 9 0
BBX 7 12 0 0
BITMAP
08
10
00
10
28
44
82
FE
82
82
82
82
ENDCHAR
STARTCHAR U+00C2
ENCODING 194
SWIDTH 843 0
DWIDTH 9 0
BBX 7 12 0 0
BITMAP
10
28
00
10
28
44
82
FE
82
82
82
82
ENDCHAR
STARTCHAR U+00C3
ENCODING 195
SWIDTH 843 0
DWIDTH 9 0
BBX 7 12 0 0
BITMAP
32
4C
00
10
28
44
82
FE
82
82
82
82
ENDCHAR
STARTCHAR U+00C4
ENCODING 196
SWIDTH 843 0
DWIDTH 9 0
BBX 7 12 0 0
BITMAP
44
44
00
10
28
44
82
FE
82
82
82
82
ENDCHAR
STARTCHAR U+00C5
ENCODING 197
SWIDTH 843 0
DWIDTH 9 0
BBX 7 12 0 0
BITMAP
38
44
38
10
28
44
82
FE
82
82
82
82
ENDCHAR
STARTCHAR U+00C6
ENCODING 198
SWIDTH 843 0
DWIDTH 9 0
BBX 8 9 0 0
BITMAP
1F
28
48
88
FE
88
88
88
8F
ENDCHAR
STARTCHAR U+00C7
ENCODING 199
SWIDTH 843 0
DWIDTH 9 0
BBX 7 11 0 -2
BITMAP
3C
42
80
80
80
80
80
42
3C
08
30
ENDCHAR
STARTCHAR U+00C8
ENCODING 200
SWIDTH 843 0
DWIDTH 9 0
BBX 7 12 0 0
BITMAP
20
10
00
FE
80
80
80
F8
80
80
80
FE
ENDCHAR
STARTCHAR U+00C9
ENCODING 201
SWIDTH 843 0
DWIDTH 9 0
BBX 7 12 0 0
BITMAP
08
10
00
FE
80
80
80
F8
80
80
80
FE
ENDCHAR
STARTCHAR U+00CA
ENCODING 202
SWIDTH 843 0
DWIDTH 9 0
BBX 7 12 0 0
BITMAP
10
28
00
FE
80
80
80
F8
80
80
80
FE
ENDCHAR
STARTCHAR U+00CB
ENCODING 203
SWIDTH 843 0
DWIDTH 9 0
BBX 7 12 0 0
BITMAP
44
44
00
FE
80
80
80
F8
80
80
80
FE
ENDCHAR
STARTCHAR U+00CC
ENCODING 204
SWIDTH 843 0
DWIDTH 9 0
BBX 5 12 1 0
BITMAP
40
20
00
F8
20
20
20
20
20
20
20
F8
ENDCHAR
STARTCHAR U+00CD
ENCODING 205
SWIDTH 843 0
DWIDTH 9 0
BBX 5 12 1 0
BITMAP
10
20
00
F8
20
20
20
20
20
20
20
F8
ENDCHAR
STARTCHAR U+00CE
ENCODING 206
SWIDTH 843 0
DWIDTH 9 0
BBX 5 12 1 0
BITMAP
20
50
00
F8
20
20
20
20
20
20
20
F8
ENDCHAR
STARTCHAR U+00CF
ENCODING 207
SWIDTH 843 0
DWIDTH 9 0
BBX 5 12 1 0
BITMAP
88
88
00
F8
20
20
20
20
20
20
20
F8
ENDCHAR
STARTCHAR U+00D0
ENCODING 208
SWIDTH 843 0
DWIDTH 9 0
BBX 7 9 0 0
BITMAP
78
44
42
42
E2
42
42
44
78
ENDCHAR
STARTCHAR U+00D1
ENCODING 209
SWIDTH 843 0
DWIDTH 9 0
BBX 7 12 0 0
BITMAP
32
4C
00
82
C2
A2
92
8A
86
82
82
82
ENDCHAR
STARTCHAR U+00D2
ENCODING 210
SWIDTH 843 0
DWIDTH 9 0
BBX 7 12 0 0
BITMAP
20
10
00
38
44
82
82
82
82
82
44
38
ENDCHAR
STARTCHAR U+00D3
ENCODING 211
SWIDTH 843 0
DWIDTH 9 0
BBX 7 12 0 0
BITMAP
08
10
00
38
44
82
82
82
82
82
44
38
ENDCHAR
STARTCHAR U+00D4
ENCODING 212
SWIDTH 843 0
DWIDTH 9 0
BBX 7 12 0 0
BITMAP
10
28
00
38
44
82
82
82
82
82
44
38
ENDCHAR
STARTCHAR U+00D5
ENCODING 213
SWIDTH 843 0
DWIDTH 9 0
BBX 7 12 0 0
BITMAP
32
4C
00
38
44
82
82
82
82
82
44
38
ENDCHAR
STARTCHAR U+00D6
ENCODING 214
SWIDTH 843 0
DWIDTH 9 0
BBX 7 12 0 0
BITMAP
44
44
00
38
44
82
82
82
82
82
44
38
ENDCHAR
STARTCHAR U+00D7
ENCODING 215
SWIDTH 843 0
DWIDTH 9 0
BBX 5 5 1 2
BITMAP
88
50
20
50
88
ENDCHAR
STARTCHAR U+00D8
ENCODING 216
SWIDTH 843 0
DWIDTH 9 0
BBX 7 9 0 0
BITMAP
38
44
82
82
82
82
82
44
38
ENDCHAR
STARTCHAR U+00D9
ENCODING 217
SWIDTH 843 0
DWIDTH 9 0
BBX 7 12 0 0
BITMAP
20
10
00
82
82
82
82
82
82
82
44
38
ENDCHAR
STARTCHAR U+00DA
ENCODING 218
SWIDTH 843 0
DWIDTH 9 0
BBX 7 12 0 0
BITMAP
08
10
00
82
82
82
82
82
82
82
44
38
ENDCHAR
STARTCHAR U+00DB
ENCODING 219
SWIDTH 843 0
DWIDTH 9 0
BBX 7 12 0 0
BITMAP
10
28
00
82
82
82
82
82
82
82
44
38
ENDCHAR
STARTCHAR U+00DC
ENCODING 220
SWIDTH 843 0
DWIDTH 9 0
BBX 7 12 0 0
BITMAP
44
44
00
82
82
82
82
82
82
82
44
38
ENDCHAR
STARTCHAR U+00DD
ENCODING 221
SWIDTH 843 0
DWIDTH 9 0
BBX 7 12 0 0
BITMAP
08
10
00
82
82
82
44
28
10
10
10
10
ENDCHAR
STARTCHAR U+00DE
ENCODING 222
SWIDTH 843 0
DWIDTH 9 0
BBX 6 11 0 -1
BITMAP
80
80
F0
88
84
84
84
88
F0
80
80
ENDCHAR
STARTCHAR U+00DF
ENCODING 223
SWIDTH 843 0
DWIDTH 9 0
BBX 7 9 0 0
BITMAP
70
88
88
B8
84
82
82
A2
9C
ENDCHAR
STARTCHAR U+00E0
ENCODING 224
SWIDTH 843 0
DWIDTH 9 0
BBX 7 10 0 0
BITMAP
20
10
00
7C
82
02
7E
82
86
7A
ENDCHAR
STARTCHAR U+00E1
ENCODING 225
SWIDTH 843 0
DWIDTH 9 0
BBX 7 10 0 0
BITMAP
08
10
00
7C
82
02
7E
82
86
7A
ENDCHAR
STARTCHAR U+00E2
ENCODING 226
SWIDTH 843 0
DWIDTH 9 0
BBX 7 10 0 0
BITMAP
10
28
00
7C
82
02
7E
82
86
7A
ENDCHAR
STARTCHAR U+00E3
ENCODING 227
SWIDTH 843 0
DWIDTH 9 0
BBX 7 10 0 0
BITMAP
32
4C
00
7C
82
02
7E
82
86
7A
ENDCHAR
STARTCHAR U+00E4
ENCODING 228
SWIDTH 843 0
DWIDTH 9 0
BBX 7 10 0 0
BITMAP
44
44
00
7C
82
02
7E
82
86
7A
ENDCHAR
STARTCHAR U+00E5
ENCODING 229
SWIDTH 843 0
DWIDTH 9 0
BBX 7 11 0 0
BITMAP
38
44
38
00
7C
82
02
7E
82
86
7A
ENDCHAR
STARTCHAR U+00E6
ENCODING 230
SWIDTH 843 0
DWIDTH 9 0
BBX 7 7 0 0
BITMAP
7C
92
12
7E
90
92
7C
ENDCHAR
STARTCHAR U+00E7
ENCODING 231
SWIDTH 843 0
DWIDTH 9 0
BBX 7 9 0 -2
BITMAP
3C
42
80
80
80
42
3C
08
30
ENDCHAR
STARTCHAR U+00E8
ENCODING 232
SWIDTH 843 0
DWIDTH 9 0
BBX 7 10 0 0
BITMAP
20
10
00
7C
82
82
FE
80
82
7C
ENDCHAR
STARTCHAR U+00E9
ENCODING 233
SWIDTH 843 0
DWIDTH 9 0
BBX 7 10 0 0
BITMAP
08
10
00
7C
82
82
FE
80
82
7C
ENDCHAR
STARTCHAR U+00EA
ENCODING 234
SWIDTH 843 0
DWIDTH 9 0
BBX 7 10 0 0
BITMAP
10
28
00
7C
82
82
FE
80
82
7C
ENDCHAR
STARTCHAR U+00EB
ENCODING 235
SWIDTH 843 0
DWIDTH 9 0
BBX 7 10 0 0
BITMAP
44
44
00
7C
82
82
FE
80
82
7C
ENDCHAR
STARTCHAR U+00EC
ENCODING 236
SWIDTH 843 0
DWIDTH 9 0
BBX 5 10 1 0
BITMAP
40
20
00
E0
20
20
20
20
20
F8
ENDCHAR
STARTCHAR U+00ED
ENCODING 237
SWIDTH 843 0
DWIDTH 9 0
BBX 5 10 1 0
BITMAP
10
20
00
E0
20
20
20
20
20
F8
ENDCHAR
STARTCHAR U+00EE
ENCODING 238
SWIDTH 843 0
DWIDTH 9 0
BBX 5 10 1 0
BITMAP
20
50
00
E0
20
20
20
20
20
F8
ENDCHAR
STARTCHAR U+00EF
ENCODING 239
SWIDTH 843 0
DWIDTH 9 0
BBX 5 10 1 0
BITMAP
90
90
00
E0
20
20
20
20
20
F8
ENDCHAR
STARTCHAR U+00F0
ENCODING 240
SWIDTH 843 0
DWIDTH 9 0
BBX 7 9 0 0
BITMAP
3A
04
0A
02
7E
82
82
82
7C
ENDCHAR
STARTCHAR U+00F1
ENCODING 241
SWIDTH 843 0
DWIDTH 9 0
BBX 7 11 0 0
BITMAP
32
4C
00
00
B8
C4
82
82
82
82
82
ENDCHAR
STARTCHAR U+00F2
ENCODING 242
SWIDTH 843 0
DWIDTH 9 0
BBX 7 10 0 0
BITMAP
20
10
00
38
44
82
82
82
44
38
ENDCHAR
STARTCHAR U+00F3
ENCODING 243
SWIDTH 843 0
DWIDTH 9 0
BBX 7 10 0 0
BITMAP
08
10
00
38
44
82
82
82
44
38
ENDCHAR
STARTCHAR U+00F4
ENCODING 244
SWIDTH 843 0
DWIDTH 9 0
BBX 7 10 0 0
BITMAP
10
28
00
38
44
82
82
82
44
38
ENDCHAR
STARTCHAR U+00F5
ENCODING 245
SWIDTH 843 0
DWIDTH 9 0
BBX 7 10 0 0
BITMAP
32
4C
00
38
44
82
82
82
44
38
ENDCHAR
STARTCHAR U+00F6
ENCODING 246
SWIDTH 843 0
DWIDTH 9 0
BBX 7 10 0 0
BITMAP
44
44
00
38
44
82
82
82
44
38
ENDCHAR
STARTCHAR U+00F7
ENCODING 247
SWIDTH 843 0
DWIDTH 9 0
BBX 5 7 1 1
BITMAP
20
00
00
F8
00
00
20
ENDCHAR
STARTCHAR U+00F8
ENCODING 248
SWIDTH 843 0
DWIDTH 9 0
BBX 7 7 0 0
BITMAP
3A
44
8A
92
A2
44
B8
ENDCHAR
STARTCHAR U+00F9
ENCODING 249
SWIDTH 843 0
DWIDTH 9 0
BBX 7 10 0 0
BITMAP
20
10
00
82
82
82
82
82
46
3A
ENDCHAR
STARTCHAR U+00FA
ENCODING 250
SWIDTH 843 0
DWIDTH 9 0
BBX 7 10 0 0
BITMAP
08
10
00
82
82
82
82
82
46
3A
ENDCHAR
STARTCHAR U+00FB
ENCODING 251
SWIDTH 843 0
DWIDTH 9 0
BBX 7 10 0 0
BITMAP
10
28
00
82
82
82
82
82
46
3A
ENDCHAR
STARTCHAR U+00FC
ENCODING 252
SWIDTH 843 0
DWIDTH 9 0
BBX 7 10 0 0
BITMAP
44
44
00
82
82
82
82
82
46
3A
ENDCHAR
STARTCHAR U+00FD
ENCODING 253
SWIDTH 843 0
DWIDTH 9 0
BBX 7 13 0 -3
BITMAP
08
10
00
82
82
82
82
82
46
3A
02
42
3C
ENDCHAR
STARTCHAR U+00FE
ENCODING 254
SWIDTH 843 0
DWIDTH 9 0
BBX 6 10 0 -1
BITMAP
80
80
B0
C8
84
84
84
C8
B0
80
ENDCHAR
STARTCHAR U+00FF
ENCODING 255
SWIDTH 843 0
DWIDTH 9 0
BBX 7 13 0 -3
BITMAP
44
44
00
82
82
82
82
82
46
3A
02
42
3C
ENDCHAR
STARTCHAR U+0100
ENCODING 256
SWIDTH 843 0
DWIDTH 9 0
BBX 7 11 0 0
BITMAP
38
00
10
28
44
82
FE
82
82
82
82
ENDCHAR
STARTCHAR U+0101
ENCODING 257
SWIDTH 843 0
DWIDTH 9 0
BBX 7 9 0 0
BITMAP
38
00
7C
82
02
7E
82
86
7A
ENDCHAR
STARTCHAR U+0102
ENCODING 258
SWIDTH 843 0
DWIDTH 9 0
BBX 7 12 0 0
BITMAP
44
38
00
10
28
44
82
FE
82
82
82
82
ENDCHAR
STARTCHAR U+0103
ENCODING 259
SWIDTH 843 0
DWIDTH 9 0
BBX 7 10 0 0
BITMAP
44
38
00
7C
82
02
7E
82
86
7A
ENDCHAR
STARTCHAR U+0104
ENCODING 260
SWIDTH 843 0
DWIDTH 9 0
BBX 7 11 0 -2
BITMAP
10
28
44
82
FE
82
82
82
86
08
06
ENDCHAR
STARTCHAR U+0105
ENCODING 261
SWIDTH 843 0
DWIDTH 9 0
BBX 7 9 0 -2
BITMAP
7C
82
02
7E
82
86
7A
08
06
ENDCHAR
STARTCHAR U+0106
ENCODING 262
SWIDTH 843 0
DWIDTH 9 0
BBX 7 12 0 0
BITMAP
08
10
00
3C
42
80
80
80
80
80
42
3C
ENDCHAR
STARTCHAR U+0107
ENCODING 263
SWIDTH 843 0
DWIDTH 9 0
BBX 7 10 0 0
BITMAP
08
10
00
3C
42
80
80
80
42
3C
ENDCHAR
STARTCHAR U+0108
ENCODING 264
SWIDTH 843 0
DWIDTH 9 0
BBX 7 12 0 0
BITMAP
10
28
00
3C
42
80
80
80
80
80
42
3C
ENDCHAR
STARTCHAR U+0109
ENCODING 265
SWIDTH 843 0
DWIDTH 9 0
BBX 7 10 0 0
BITMAP
10
28
00
3C
42
80
80
80
42
3C
ENDCHAR
STARTCHAR U+010A
ENCODING 266
SWIDTH 843 0
DWIDTH 9 0
BBX 7 12 0 0
BITMAP
10
10
00
3C
42
80
80
80
80
80
42
3C
ENDCHAR
STARTCHAR U+010B
ENCODING 267
SWIDTH 843 0
DWIDTH 9 0
BBX 7 10 0 0
BITMAP
10
10
00
3C
42
80
80
80
42
3C
ENDCHAR
STARTCHAR U+010C
ENCODING 268
SWIDTH 843 0
DWIDTH 9 0
BBX 7 12 0 0
BITMAP
28
10
00
3C
42
80
80
80
80
80
42
3C
ENDCHAR
STARTCHAR U+010D
ENCODING 269
SWIDTH 843 0
DWIDTH 9 0
BBX 7 10 0 0
BITMAP
28
10
00
3C
42
80
80
80
42
3C
ENDCHAR
STARTCHAR U+010E
ENCODING 270
SWIDTH 843 0
DWIDTH 9 0
BBX 7 12 0 0
BITMAP
28
10
00
F8
84
82
82
82
82
82
84
F8
ENDCHAR
STARTCHAR U+010F
ENCODING 271
SWIDTH 843 0
DWIDTH 9 0
BBX 7 11 0 0
BITMAP
28
10
02
02
3A
46
82
82
82
46
3A
ENDCHAR
STARTCHAR U+0110
ENCODING 272
SWIDTH 843 0
DWIDTH 9 0
BBX 7 9 0 0
BITMAP
78
44
42
42
FE
42
42
44
78
ENDCHAR
STARTCHAR U+0111
ENCODING 273
SWIDTH 843 0
DWIDTH 9 0
BBX 7 9 0 0
BITMAP
02
02
1A
26
42
FE
42
26
1A
ENDCHAR
STARTCHAR U+0112
ENCODING 274
SWIDTH 843 0
DWIDTH 9 0
BBX 7 11 0 0
BITMAP
38
00
FE
80
80
80
F8
80
80
80
FE
ENDCHAR
STARTCHAR U+0113
ENCODING 275
SWIDTH 843 0
DWIDTH 9 0
BBX 7 9 0 0
BITMAP
38
00
7C
82
82
FE
80
82
7C
ENDCHAR
STARTCHAR U+0114
ENCODING 276
SWIDTH 843 0
DWIDTH 9 0
BBX 7 12 0 0
BITMAP
44
38
00
FE
80
80
80
F8
80
80
80
FE
ENDCHAR
STARTCHAR U+0115
ENCODING 277
SWIDTH 843 0
DWIDTH 9 0
BBX 7 10 0 0
BITMAP
44
38
00
7C
82
82
FE
80
82
7C
ENDCHAR
STARTCHAR U+0116
ENCODING 278
SWIDTH 843 0
DWIDTH 9 0
BBX 7 12 0 0
BITMAP
10
10
00
FE
80
80
80
F8
80
80
80
FE
ENDCHAR
STARTCHAR U+0117
ENCODING 279
SWIDTH 843 0
DWIDTH 9 0
BBX 7 10 0 0
BITMAP
10
10
00
7C
82
82
FE
80
82
7C
ENDCHAR
STARTCHAR U+0118
ENCODING 280
SWIDTH 843 0
DWIDTH 9 0
BBX 7 11 0 -2
BITMAP
FE
80
80
80
F8
80
80
80
FE
08
06
ENDCHAR
STARTCHAR U+0119
ENCODING 281
SWIDTH 843 0
DWIDTH 9 0
BBX 7 9 0 -2
BITMAP
7C
82
82
FE
80
82
7C
08
06
ENDCHAR
STARTCHAR U+011A
ENCODING 282
SWIDTH 843 0
DWIDTH 9 0
BBX 7 12 0 0
BITMAP
28
10
00
FE
80
80
80
F8
80
80
80
FE
ENDCHAR
STARTCHAR U+011B
ENCODING 283
SWIDTH 843 0
DWIDTH 9 0
BBX 7 10 0 0
BITMAP
28
10
00
7C
82
82
FE
80
82
7C
ENDCHAR
STARTCHAR U+011C
ENCODING 284
SWIDTH 843 0
DWIDTH 9 0
BBX 7 12 0 0
BITMAP
10
28
00
3C
42
80
80
9E
82
82
42
3C
ENDCHAR
STARTCHAR U+011D
ENCODING 285
SWIDTH 843 0
DWIDTH 9 0
BBX 7 13 0 -3
BITMAP
10
28
00
3A
46
82
82
82
46
3A
02
42
3C
ENDCHAR
STARTCHAR U+011E
ENCODING 286
SWIDTH 843 0
DWIDTH 9 0
BBX 7 12 0 0
BITMAP
44
38
00
3C
42
80
80
9E
82
82
42
3C
ENDCHAR
STARTCHAR U+011F
ENCODING 287
SWIDTH 843 0
DWIDTH 9 0
BBX 7 13 0 -3
BITMAP
44
38
00
3A
46
82
82
82
46
3A
02
42
3C
ENDCHAR
STARTCHAR U+0120
ENCODING 288
SWIDTH 843 0
DWIDTH 9 0
BBX 7 12 0 0
BITMAP
10
10
00
3C
42
80
80
9E
82
82
42
3C
ENDCHAR
STARTCHAR U+0121
ENCODING 289
SWIDTH 843 0
DWIDTH 9 0
BBX 7 13 0 -3
BITMAP
10
10
00
3A
46
82
82
82
46
3A
02
42
3C
ENDCHAR
STARTCHAR U+0122
ENCODING 290
SWIDTH 843 0
DWIDTH 9 0
BBX 7 11 0 -2
BITMAP
3C
42
80
80
9E
82
82
42
3C
08
06
ENDCHAR
STARTCHAR U+0123
ENCODING 291
SWIDTH 843 0
DWIDTH 9 0
BBX 7 13 0 -3
BITMAP
08
06
00
3A
46
82
82
82
46
3A
02
42
3C
ENDCHAR
STARTCHAR U+0124
ENCODING 292
SWIDTH 843 0
DWIDTH 9 0
BBX 7 12 0 0
BITMAP
10
28
00
82
82
82
82
FE
82
82
82
82
ENDCHAR
STARTCHAR U+0125
ENCODING 293
SWIDTH 843 0
DWIDTH 9 0
BBX 7 10 0 0
BITMAP
10
A8
80
80
B8
C4
82
82
82
82
ENDCHAR
STARTCHAR U+0126
ENCODING 294
SWIDTH 843 0
DWIDTH 9 0
BBX 7 9 0 0
BITMAP
42
42
FE
42
7E
42
42
42
42
ENDCHAR
STARTCHAR U+0127
ENCODING 295
SWIDTH 843 0
DWIDTH 9 0
BBX 7 9 0 0
BITMAP
40
40
40
58
64
42
FE
42
42
ENDCHAR
STARTCHAR U+0128
ENCODING 296
SWIDTH 843 0
DWIDTH 9 0
BBX 6 12 1 0
BITMAP
64
98
00
F8
20
20
20
20
20
20
20
F8
ENDCHAR
STARTCHAR U+0129
ENCODING 297
SWIDTH 843 0
DWIDTH 9 0
BBX 6 10 1 0
BITMAP
64
98
00
E0
20
20
20
20
20
F8
ENDCHAR
STARTCHAR U+012A
ENCODING 298
SWIDTH 843 0
DWIDTH 9 0
BBX 5 11 1 0
BITMAP
70
00
F8
20
20
20
20
20
20
20
F8
ENDCHAR
STARTCHAR U+012B
ENCODING 299
SWIDTH 843 0
DWIDTH 9 0
BBX 5 9 1 0
BITMAP
70
00
E0
20
20
20
20
20
F8
ENDCHAR
STARTCHAR U+012C
ENCODING 300
SWIDTH 843 0
DWIDTH 9 0
BBX 5 12 1 0
BITMAP
88
70
00
F8
20
20
20
20
20
20
20
F8
ENDCHAR
STARTCHAR U+012D
ENCODING 301
SWIDTH 843 0
DWIDTH 9 0
BBX 5 10 1 0
BITMAP
88
70
00
E0
20
20
20
20
20
F8
ENDCHAR
STARTCHAR U+012E
ENCODING 302
SWIDTH 843 0
DWIDTH 9 0
BBX 6 11 1 -2
BITMAP
F8
20
20
20
20
20
20
20
F8
10
0C
ENDCHAR
STARTCHAR U+012F
ENCODING 303
SWIDTH 843 0
DWIDTH 9 0
BBX 6 11 1 -2
BITMAP
20
00
E0
20
20
20
20
20
F8
10
0C
ENDCHAR
STARTCHAR U+0130
ENCODING 304
SWIDTH 843 0
DWIDTH 9 0
BBX 5 12 1 0
BITMAP
20
20
00
F8
20
20
20
20
20
20
20
F8
ENDCHAR
STARTCHAR U+0131
ENCODING 305
SWIDTH 843 0
DWIDTH 9 0
BBX 5 7 1 0
BITMAP
E0
20
20
20
20
20
F8
ENDCHAR
STARTCHAR U+0400
ENCODING 1024
SWIDTH 843 0
DWIDTH 9 0
BBX 7 12 0 0
BITMAP
20
10
00
FE
80
80
80
F8
80
80
80
FE
ENDCHAR
STARTCHAR U+0401
ENCODING 1025
SWIDTH 843 0
DWIDTH 9 0
BBX 7 12 0 0
BITMAP
44
44
00
FE
80
80
80
F8
80
80
80
FE
ENDCHAR
STARTCHAR U+040C
ENCODING 1036
SWIDTH 843 0
DWIDTH 9 0
BBX 7 12 0 0
BITMAP
08
10
00
82
84
88
90
F0
88
84
82
82
ENDCHAR
STARTCHAR U+040D
ENCODING 1037
SWIDTH 843 0
DWIDTH 9 0
BBX 7 12 0 0
BITMAP
20
10
00
82
82
86
8A
92
A2
C2
82
82
ENDCHAR
STARTCHAR U+040E
ENCODING 1038
SWIDTH 843 0
DWIDTH 9 0
BBX 7 12 0 0
BITMAP
44
38
00
82
82
44
28
10
20
40
80
80
ENDCHAR
STARTCHAR U+0410
ENCODING 1040
SWIDTH 843 0
DWIDTH 9 0
BBX 7 9 0 0
BITMAP
10
28
44
82
FE
82
82
82
82
ENDCHAR
STARTCHAR U+0411
ENCODING 1041
SWIDTH 843 0
DWIDTH 9 0
BBX 7 9 0 0
BITMAP
FE
80
80
80
FC
82
82
82
FC
ENDCHAR
STARTCHAR U+0412
ENCODING 1042
SWIDTH 843 0
DWIDTH 9 0
BBX 7 9 0 0
BITMAP
F8
84
84
84
FC
82
82
82
FC
ENDCHAR
STARTCHAR U+0413
ENCODING 1043
SWIDTH 843 0
DWIDTH 9 0
BBX 7 9 0 0
BITMAP
FE
80
80
80
80
80
80
80
80
ENDCHAR
STARTCHAR U+0414
ENCODING 1044
SWIDTH 843 0
DWIDTH 9 0
BBX 7 9 0 0
BITMAP
7C
44
44
44
44
44
44
FE
82
ENDCHAR
STARTCHAR U+0415
ENCODING 1045
SWIDTH 843 0
DWIDTH 9 0
BBX 7 9 0 0
BITMAP
FE
80
80
80
F8
80
80
80
FE
ENDCHAR
STARTCHAR U+0416
ENCODING 1046
SWIDTH 843 0
DWIDTH 9 0
BBX 7 9 0 0
BITMAP
92
92
92
54
38
54
92
92
92
ENDCHAR
STARTCHAR U+0417
ENCODING 1047
SWIDTH 843 0
DWIDTH 9 0
BBX 7 9 0 0
BITMAP
7C
82
82
02
1C
02
82
82
7C
ENDCHAR
STARTCHAR U+0418
ENCODING 1048
SWIDTH 843 0
DWIDTH 9 0
BBX 7 9 0 0
BITMAP
82
82
86
8A
92
A2
C2
82
82
ENDCHAR
STARTCHAR U+0419
ENCODING 1049
SWIDTH 843 0
DWIDTH 9 0
BBX 7 12 0 0
BITMAP
44
38
00
82
82
86
8A
92
A2
C2
82
82
ENDCHAR
STARTCHAR U+041A
ENCODING 1050
SWIDTH 843 0
DWIDTH 9 0
BBX 7 9 0 0
BITMAP
82
84
88
90
F0
88
84
82
82
ENDCHAR
STARTCHAR U+041B
ENCODING 1051
SWIDTH 843 0
DWIDTH 9 0
BBX 7 9 0 0
BITMAP
3E
22
22
22
22
22
22
22
C2
ENDCHAR
STARTCHAR U+041C
ENCODING 1052
SWIDTH 843 0
DWIDTH 9 0
BBX 7 9 0 0
BITMAP
82
C6
AA
92
82
82
82
82
82
ENDCHAR
STARTCHAR U+041D
ENCODING 1053
SWIDTH 843 0
DWIDTH 9 0
BBX 7 9 0 0
BITMAP
82
82
82
82
FE
82
82
82
82
ENDCHAR
STARTCHAR U+041E
ENCODING 1054
SWIDTH 843 0
DWIDTH 9 0
BBX 7 9 0 0
BITMAP
38
44
82
82
82
82
82
44
38
ENDCHAR
STARTCHAR U+041F
ENCODING 1055
SWIDTH 843 0
DWIDTH 9 0
BBX 7 9 0 0
BITMAP
FE
82
82
82
82
82
82
82
82
ENDCHAR
STARTCHAR U+0420
ENCODING 1056
SWIDTH 843 0
DWIDTH 9 0
BBX 7 9 0 0
BITMAP
FC
82
82
82
FC
80
80
80
80
ENDCHAR
STARTCHAR U+0421
ENCODING 1057
SWIDTH 843 0
DWIDTH 9 0
BBX 7 9 0 0
BITMAP
3C
42
80
80
80
80
80
42
3C
ENDCHAR
STARTCHAR U+0422
ENCODING 1058
SWIDTH 843 0
DWIDTH 9 0
BBX 7 9 0 0
BITMAP
FE
10
10
10
10
10
10
10
10
ENDCHAR
STARTCHAR U+0423
ENCODING 1059
SWIDTH 843 0
DWIDTH 9 0
BBX 7 9 0 0
BITMAP
82
82
44
28
10
20
40
80
80
ENDCHAR
STARTCHAR U+0424
ENCODING 1060
SWIDTH 843 0
DWIDTH 9 0
BBX 7 11 0 -1
BITMAP
10
7C
92
92
92
92
92
92
92
7C
10
ENDCHAR
STARTCHAR U+0425
ENCODING 1061
SWIDTH 843 0
DWIDTH 9 0
BBX 7 9 0 0
BITMAP
82
82
44
28
10
28
44
82
82
ENDCHAR
STARTCHAR U+0426
ENCODING 1062
SWIDTH 843 0
DWIDTH 9 0
BBX 7 11 0 -2
BITMAP
84
84
84
84
84
84
84
84
FE
02
02
ENDCHAR
STARTCHAR U+0427
ENCODING 1063
SWIDTH 843 0
DWIDTH 9 0
BBX 7 9 0 0
BITMAP
82
82
82
82
7E
02
02
02
02
ENDCHAR
STARTCHAR U+0428
ENCODING 1064
SWIDTH 843 0
DWIDTH 9 0
BBX 7 9 0 0
BITMAP
82
82
82
92
92
92
92
92
FE
ENDCHAR
STARTCHAR U+0429
ENCODING 1065
SWIDTH 843 0
DWIDTH 9 0
BBX 8 11 0 -2
BITMAP
82
82
82
92
92
92
92
92
FF
01
01
ENDCHAR
STARTCHAR U+042A
ENCODING 1066
SWIDTH 843 0
DWIDTH 9 0
BBX 7 9 0 0
BITMAP
E0
20
20
20
3C
22
22
22
3C
ENDCHAR
STARTCHAR U+042B
ENCODING 1067
SWIDTH 843 0
DWIDTH 9 0
BBX 7 9 0 0
BITMAP
82
82
82
82
F2
8A
8A
8A
F2
ENDCHAR
STARTCHAR U+042C
ENCODING 1068
SWIDTH 843 0
DWIDTH 9 0
BBX 6 9 1 0
BITMAP
80
80
80
80
F8
84
84
84
F8
ENDCHAR
STARTCHAR U+042D
ENCODING 1069
SWIDTH 843 0
DWIDTH 9 0
BBX 7 9 0 0
BITMAP
78
84
02
02
1E
02
02
84
78
ENDCHAR
STARTCHAR U+042E
ENCODING 1070
SWIDTH 843 0
DWIDTH 9 0
BBX 7 9 0 0
BITMAP
9C
A2
A2
A2
E2
A2
A2
A2
9C
ENDCHAR
STARTCHAR U+042F
ENCODING 1071
SWIDTH 843 0
DWIDTH 9 0
BBX 7 9 0 0
BITMAP
7E
82
82
82
7E
12
22
42
82
ENDCHAR
STARTCHAR U+0430
ENCODING 1072
SWIDTH 843 0
DWIDTH 9 0
BBX 7 7 0 0
BITMAP
7C
82
02
7E
82
86
7A
ENDCHAR
STARTCHAR U+0431
ENCODING 1073
SWIDTH 843 0
DWIDTH 9 0
BBX 7 9 0 0
BITMAP
02
3C
40
80
BC
C2
82
82
7C
ENDCHAR
STARTCHAR U+0432
ENCODING 1074
SWIDTH 843 0
DWIDTH 9 0
BBX 7 7 0 0
BITMAP
F8
84
84
FC
82
82
FC
ENDCHAR
STARTCHAR U+0433
ENCODING 1075
SWIDTH 843 0
DWIDTH 9 0
BBX 6 7 1 0
BITMAP
FC
80
80
80
80
80
80
ENDCHAR
STARTCHAR U+0434
ENCODING 1076
SWIDTH 843 0
DWIDTH 9 0
BBX 7 7 0 0
BITMAP
3C
44
44
44
44
FE
82
ENDCHAR
STARTCHAR U+0435
ENCODING 1077
SWIDTH 843 0
DWIDTH 9 0
BBX 7 7 0 0
BITMAP
7C
82
82
FE
80
82
7C
ENDCHAR
STARTCHAR U+0436
ENCODING 1078
SWIDTH 843 0
DWIDTH 9 0
BBX 7 7 0 0
BITMAP
92
92
54
38
54
92
92
ENDCHAR
STARTCHAR U+0437
ENCODING 1079
SWIDTH 843 0
DWIDTH 9 0
BBX 7 7 0 0
BITMAP
7C
82
02
1C
02
82
7C
ENDCHAR
STARTCHAR U+0438
ENCODING 1080
SWIDTH 843 0
DWIDTH 9 0
BBX 7 7 0 0
BITMAP
82
86
8A
92
A2
C2
82
ENDCHAR
STARTCHAR U+0439
ENCODING 1081
SWIDTH 843 0
DWIDTH 9 0
BBX 7 10 0 0
BITMAP
44
38
00
82
86
8A
92
A2
C2
82
ENDCHAR
STARTCHAR U+043A
ENCODING 1082
SWIDTH 843 0
DWIDTH 9 0
BBX 7 7 0 0
BITMAP
82
84
88
F8
84
82
82
ENDCHAR
STARTCHAR U+043B
ENCODING 1083
SWIDTH 843 0
DWIDTH 9 0
BBX 7 7 0 0
BITMAP
1E
22
22
22
22
22
C2
ENDCHAR
STARTCHAR U+043C
ENCODING 1084
SWIDTH 843 0
DWIDTH 9 0
BBX 7 7 0 0
BITMAP
82
C6
AA
92
82
82
82
ENDCHAR
STARTCHAR U+043D
ENCODING 1085
SWIDTH 843 0
DWIDTH 9 0
BBX 7 7 0 0
BITMAP
82
82
82
FE
82
82
82
ENDCHAR
STARTCHAR U+043E
ENCODING 1086
SWIDTH 843 0
DWIDTH 9 0
BBX 7 7 0 0
BITMAP
38
44
82
82
82
44
38
ENDCHAR
STARTCHAR U+043F
ENCODING 1087
SWIDTH 843 0
DWIDTH 9 0
BBX 7 7 0 0
BITMAP
FE
82
82
82
82
82
82
ENDCHAR
STARTCHAR U+0440
ENCODING 1088
SWIDTH 843 0
DWIDTH 9 0
BBX 7 10 0 -3
BITMAP
B8
C4
82
82
82
C4
B8
80
80
80
ENDCHAR
STARTCHAR U+0441
ENCODING 1089
SWIDTH 843 0
DWIDTH 9 0
BBX 7 7 0 0
BITMAP
3C
42
80
80
80
42
3C
ENDCHAR
STARTCHAR U+0442
ENCODING 1090
SWIDTH 843 0
DWIDTH 9 0
BBX 7 7 0 0
BITMAP
FE
10
10
10
10
10
10
ENDCHAR
STARTCHAR U+0443
ENCODING 1091
SWIDTH 843 0
DWIDTH 9 0
BBX 7 10 0 -3
BITMAP
82
82
82
82
82
46
3A
02
04
78
ENDCHAR
STARTCHAR U+0444
ENCODING 1092
SWIDTH 843 0
DWIDTH 9 0
BBX 7 11 0 -2
BITMAP
10
10
7C
92
92
92
92
92
7C
10
10
ENDCHAR
STARTCHAR U+0445
ENCODING 1093
SWIDTH 843 0
DWIDTH 9 0
BBX 7 7 0 0
BITMAP
82
44
28
10
28
44
82
ENDCHAR
STARTCHAR U+0446
ENCODING 1094
SWIDTH 843 0
DWIDTH 9 0
BBX 7 9 0 -2
BITMAP
84
84
84
84
84
84
7E
02
02
ENDCHAR
STARTCHAR U+0447
ENCODING 1095
SWIDTH 843 0
DWIDTH 9 0
BBX 7 7 0 0
BITMAP
82
82
82
42
3E
02
02
ENDCHAR
STARTCHAR U+0448
ENCODING 1096
SWIDTH 843 0
DWIDTH 9 0
BBX 7 7 0 0
BITMAP
82
82
82
92
92
92
7E
ENDCHAR
STARTCHAR U+0449
ENCODING 1097
SWIDTH 843 0
DWIDTH 9 0
BBX 8 9 0 -2
BITMAP
82
82
82
92
92
92
7F
01
01
ENDCHAR
STARTCHAR U+044A
ENCODING 1098
SWIDTH 843 0
DWIDTH 9 0
BBX 7 7 0 0
BITMAP
E0
20
20
3C
22
22
3C
ENDCHAR
STARTCHAR U+044B
ENCODING 1099
SWIDTH 843 0
DWIDTH 9 0
BBX 7 7 0 0
BITMAP
82
82
82
F2
8A
8A
F2
ENDCHAR
STARTCHAR U+044C
ENCODING 1100
SWIDTH 843 0
DWIDTH 9 0
BBX 6 7 0 0
BITMAP
80
80
80
F8
84
84
F8
ENDCHAR
STARTCHAR U+044D
ENCODING 1101
SWIDTH 843 0
DWIDTH 9 0
BBX 7 7 0 0
BITMAP
78
84
02
1E
02
84
78
ENDCHAR
STARTCHAR U+044E
ENCODING 1102
SWIDTH 843 0
DWIDTH 9 0
BBX 7 7 0 0
BITMAP
9C
A2
A2
E2
A2
A2
9C
ENDCHAR
STARTCHAR U+044F
ENCODING 1103
SWIDTH 843 0
DWIDTH 9 0
BBX 7 7 0 0
BITMAP
7E
82
82
7E
22
42
82
ENDCHAR
STARTCHAR U+0450
ENCODING 1104
SWIDTH 843 0
DWIDTH 9 0
BBX 7 10 0 0
BITMAP
20
10
00
7C
82
82
FE
80
82
7C
ENDCHAR
STARTCHAR U+0451
ENCODING 1105
SWIDTH 843 0
DWIDTH 9 0
BBX 7 10 0 0
BITMAP
44
44
00
7C
82
82
FE
80
82
7C
ENDCHAR
STARTCHAR U+0454
ENCODING 1108
SWIDTH 843 0
DWIDTH 9 0
BBX 7 7 0 0
BITMAP
3C
42
80
F0
80
42
3C
ENDCHAR
STARTCHAR U+2026
ENCODING 8230
SWIDTH 843 0
DWIDTH 9 0
BBX 7 2 0 0
BITMAP
92
92
ENDCHAR
STARTCHAR U+20AC
ENCODING 8364
SWIDTH 843 0
DWIDTH 9 0
BBX 7 9 0 0
BITMAP
3C
42
40
F8
40
F8
40
42
3C
ENDCHAR
STARTCHAR U+20BD
ENCODING 8381
SWIDTH 843 0
DWIDTH 9 0
BBX 7 9 0 0
BITMAP
7C
42
42
42
FC
40
FC
40
40
ENDCHAR
STARTCHAR U+20BF
ENCODING 8383
SWIDTH 843 0
DWIDTH 9 0
BBX 7 11 0 -1
BITMAP
28
28
FC
42
42
7C
42
42
FC
28
28
ENDCHAR
STARTCHAR U+2190
ENCODING 8592
SWIDTH 843 0
DWIDTH 9 0
BBX 7 5 0 2
BITMAP
20
40
FE
40
20
ENDCHAR
STARTCHAR U+2191
ENCODING 8593
SWIDTH 843 0
DWIDTH 9 0
BBX 5 7 1 1
BITMAP
20
70
A8
20
20
20
20
ENDCHAR
STARTCHAR U+2192
ENCODING 8594
SWIDTH 843 0
DWIDTH 9 0
BBX 7 5 0 2
BITMAP
08
04
FE
04
08
ENDCHAR
STARTCHAR U+2193
ENCODING 8595
SWIDTH 843 0
DWIDTH 9 0
BBX 5 7 1 1
BITMAP
20
20
20
20
A8
70
20
ENDCHAR
STARTCHAR U+2194
ENCODING 8596
SWIDTH 843 0
DWIDTH 9 0
BBX 7 5 0 2
BITMAP
28
44
FE
44
28
ENDCHAR
STARTCHAR U+2195
ENCODING 8597
SWIDTH 843 0
DWIDTH 9 0
BBX 5 7 1 1
BITMAP
20
70
A8
20
A8
70
20
ENDCHAR
STARTCHAR U+2196
ENCODING 8598
SWIDTH 843 0
DWIDTH 9 0
BBX 5 5 1 2
BITMAP
E0
C0
A0
10
08
ENDCHAR
STARTCHAR U+2197
ENCODING 8599
SWIDTH 843 0
DWIDTH 9 0
BBX 5 5 1 2
BITMAP
38
18
28
40
80
ENDCHAR
STARTCHAR U+2198
ENCODING 8600
SWIDTH 843 0
DWIDTH 9 0
BBX 5 5 1 2
BITMAP
80
40
28
18
38
ENDCHAR
STARTCHAR U+2199
ENCODING 8601
SWIDTH 843 0
DWIDTH 9 0
BBX 5 5 1 2
BITMAP
08
10
A0
C0
E0
ENDCHAR
ENDFONT
